<mxfile host="app.diagrams.net" modified="2023-10-04T13:42:14.933Z" agent="Mozilla/5.0 (Windows NT 10.0; Win64; x64) AppleWebKit/537.36 (KHTML, like Gecko) Chrome/117.0.0.0 Safari/537.36" etag="wh6YkwrX_1qT05NUY8YS" version="22.0.2" type="device">
  <diagram name="Page-1" id="C88CaT0eE18d__TFc0Sf">
    <mxGraphModel dx="1050" dy="534" grid="1" gridSize="10" guides="1" tooltips="1" connect="1" arrows="1" fold="1" page="1" pageScale="1" pageWidth="850" pageHeight="1100" math="0" shadow="0">
      <root>
        <mxCell id="0" />
        <mxCell id="1" parent="0" />
        <mxCell id="6VXw-UV9Kz2M4rHiQ5SI-17" style="edgeStyle=orthogonalEdgeStyle;rounded=0;orthogonalLoop=1;jettySize=auto;html=1;" edge="1" parent="1" source="6VXw-UV9Kz2M4rHiQ5SI-1" target="6VXw-UV9Kz2M4rHiQ5SI-18">
          <mxGeometry relative="1" as="geometry">
            <mxPoint x="260" y="140" as="targetPoint" />
          </mxGeometry>
        </mxCell>
        <mxCell id="6VXw-UV9Kz2M4rHiQ5SI-19" style="edgeStyle=orthogonalEdgeStyle;rounded=0;orthogonalLoop=1;jettySize=auto;html=1;" edge="1" parent="1" source="6VXw-UV9Kz2M4rHiQ5SI-1" target="6VXw-UV9Kz2M4rHiQ5SI-20">
          <mxGeometry relative="1" as="geometry">
            <mxPoint x="170" y="129.9999999999999" as="targetPoint" />
          </mxGeometry>
        </mxCell>
        <mxCell id="6VXw-UV9Kz2M4rHiQ5SI-21" style="edgeStyle=orthogonalEdgeStyle;rounded=0;orthogonalLoop=1;jettySize=auto;html=1;" edge="1" parent="1" source="6VXw-UV9Kz2M4rHiQ5SI-1" target="6VXw-UV9Kz2M4rHiQ5SI-22">
          <mxGeometry relative="1" as="geometry">
            <mxPoint x="140" y="259.9999999999999" as="targetPoint" />
          </mxGeometry>
        </mxCell>
        <mxCell id="6VXw-UV9Kz2M4rHiQ5SI-1" value="Patients" style="rounded=0;whiteSpace=wrap;html=1;" vertex="1" parent="1">
          <mxGeometry x="200" y="170" width="120" height="60" as="geometry" />
        </mxCell>
        <mxCell id="6VXw-UV9Kz2M4rHiQ5SI-23" style="edgeStyle=orthogonalEdgeStyle;rounded=0;orthogonalLoop=1;jettySize=auto;html=1;" edge="1" parent="1" source="6VXw-UV9Kz2M4rHiQ5SI-2" target="6VXw-UV9Kz2M4rHiQ5SI-24">
          <mxGeometry relative="1" as="geometry">
            <mxPoint x="490.0000000000002" y="109.99999999999989" as="targetPoint" />
          </mxGeometry>
        </mxCell>
        <mxCell id="6VXw-UV9Kz2M4rHiQ5SI-25" style="edgeStyle=orthogonalEdgeStyle;rounded=0;orthogonalLoop=1;jettySize=auto;html=1;" edge="1" parent="1" source="6VXw-UV9Kz2M4rHiQ5SI-2" target="6VXw-UV9Kz2M4rHiQ5SI-26">
          <mxGeometry relative="1" as="geometry">
            <mxPoint x="530.0000000000002" y="109.99999999999989" as="targetPoint" />
          </mxGeometry>
        </mxCell>
        <mxCell id="6VXw-UV9Kz2M4rHiQ5SI-27" style="edgeStyle=orthogonalEdgeStyle;rounded=0;orthogonalLoop=1;jettySize=auto;html=1;exitX=0;exitY=0.25;exitDx=0;exitDy=0;" edge="1" parent="1" source="6VXw-UV9Kz2M4rHiQ5SI-2" target="6VXw-UV9Kz2M4rHiQ5SI-28">
          <mxGeometry relative="1" as="geometry">
            <mxPoint x="370.0000000000002" y="99.99999999999989" as="targetPoint" />
          </mxGeometry>
        </mxCell>
        <mxCell id="6VXw-UV9Kz2M4rHiQ5SI-2" value="&#xa;&lt;pre&gt;&lt;code class=&quot;!whitespace-pre hljs language-sql&quot;&gt;Doctors&lt;/code&gt;&lt;/pre&gt;&#xa;&#xa;" style="rounded=0;whiteSpace=wrap;html=1;" vertex="1" parent="1">
          <mxGeometry x="400" y="160" width="120" height="60" as="geometry" />
        </mxCell>
        <mxCell id="6VXw-UV9Kz2M4rHiQ5SI-29" style="edgeStyle=orthogonalEdgeStyle;rounded=0;orthogonalLoop=1;jettySize=auto;html=1;exitX=0.5;exitY=0;exitDx=0;exitDy=0;" edge="1" parent="1" source="6VXw-UV9Kz2M4rHiQ5SI-3" target="6VXw-UV9Kz2M4rHiQ5SI-30">
          <mxGeometry relative="1" as="geometry">
            <mxPoint x="700" y="110" as="targetPoint" />
          </mxGeometry>
        </mxCell>
        <mxCell id="6VXw-UV9Kz2M4rHiQ5SI-31" style="edgeStyle=orthogonalEdgeStyle;rounded=0;orthogonalLoop=1;jettySize=auto;html=1;" edge="1" parent="1" source="6VXw-UV9Kz2M4rHiQ5SI-3" target="6VXw-UV9Kz2M4rHiQ5SI-32">
          <mxGeometry relative="1" as="geometry">
            <mxPoint x="740" y="120" as="targetPoint" />
          </mxGeometry>
        </mxCell>
        <mxCell id="6VXw-UV9Kz2M4rHiQ5SI-33" style="edgeStyle=orthogonalEdgeStyle;rounded=0;orthogonalLoop=1;jettySize=auto;html=1;exitX=1;exitY=0.5;exitDx=0;exitDy=0;" edge="1" parent="1" source="6VXw-UV9Kz2M4rHiQ5SI-3" target="6VXw-UV9Kz2M4rHiQ5SI-34">
          <mxGeometry relative="1" as="geometry">
            <mxPoint x="780" y="260" as="targetPoint" />
          </mxGeometry>
        </mxCell>
        <mxCell id="6VXw-UV9Kz2M4rHiQ5SI-3" value="&#xa;&lt;pre&gt;&lt;code class=&quot;!whitespace-pre hljs language-sql&quot;&gt;Clinics  &lt;/code&gt;&lt;/pre&gt;&#xa;&#xa;" style="rounded=0;whiteSpace=wrap;html=1;" vertex="1" parent="1">
          <mxGeometry x="630" y="160" width="120" height="60" as="geometry" />
        </mxCell>
        <mxCell id="6VXw-UV9Kz2M4rHiQ5SI-4" value="" style="endArrow=classic;html=1;rounded=0;entryX=0.5;entryY=0;entryDx=0;entryDy=0;exitX=0.5;exitY=1;exitDx=0;exitDy=0;" edge="1" parent="1" source="6VXw-UV9Kz2M4rHiQ5SI-1" target="6VXw-UV9Kz2M4rHiQ5SI-12">
          <mxGeometry width="50" height="50" relative="1" as="geometry">
            <mxPoint x="190" y="190" as="sourcePoint" />
            <mxPoint x="189.5" y="290" as="targetPoint" />
          </mxGeometry>
        </mxCell>
        <mxCell id="6VXw-UV9Kz2M4rHiQ5SI-5" value="" style="endArrow=classic;html=1;rounded=0;entryX=0.5;entryY=0;entryDx=0;entryDy=0;" edge="1" parent="1" source="6VXw-UV9Kz2M4rHiQ5SI-2" target="6VXw-UV9Kz2M4rHiQ5SI-9">
          <mxGeometry width="50" height="50" relative="1" as="geometry">
            <mxPoint x="419.5" y="190" as="sourcePoint" />
            <mxPoint x="419.5" y="290" as="targetPoint" />
          </mxGeometry>
        </mxCell>
        <mxCell id="6VXw-UV9Kz2M4rHiQ5SI-6" value="" style="endArrow=classic;html=1;rounded=0;entryX=0.5;entryY=0;entryDx=0;entryDy=0;exitX=0.5;exitY=1;exitDx=0;exitDy=0;" edge="1" parent="1" source="6VXw-UV9Kz2M4rHiQ5SI-3" target="6VXw-UV9Kz2M4rHiQ5SI-7">
          <mxGeometry width="50" height="50" relative="1" as="geometry">
            <mxPoint x="630" y="190" as="sourcePoint" />
            <mxPoint x="629.5" y="290" as="targetPoint" />
          </mxGeometry>
        </mxCell>
        <mxCell id="6VXw-UV9Kz2M4rHiQ5SI-7" value="C&lt;br&gt;&lt;pre&gt;&lt;code class=&quot;!whitespace-pre hljs language-sql&quot;&gt;ClinicID  &lt;/code&gt;&lt;/pre&gt;&lt;br&gt;" style="rounded=0;whiteSpace=wrap;html=1;" vertex="1" parent="1">
          <mxGeometry x="610" y="300" width="120" height="60" as="geometry" />
        </mxCell>
        <mxCell id="6VXw-UV9Kz2M4rHiQ5SI-8" value="" style="endArrow=classic;html=1;rounded=0;exitX=0;exitY=0.5;exitDx=0;exitDy=0;entryX=1;entryY=0.5;entryDx=0;entryDy=0;" edge="1" parent="1" source="6VXw-UV9Kz2M4rHiQ5SI-7" target="6VXw-UV9Kz2M4rHiQ5SI-9">
          <mxGeometry width="50" height="50" relative="1" as="geometry">
            <mxPoint x="500" y="340" as="sourcePoint" />
            <mxPoint x="480" y="350" as="targetPoint" />
            <Array as="points" />
          </mxGeometry>
        </mxCell>
        <mxCell id="6VXw-UV9Kz2M4rHiQ5SI-9" value="&#xa;&lt;pre&gt;&lt;code class=&quot;!whitespace-pre hljs language-sql&quot;&gt;DoctorID&lt;/code&gt;&lt;/pre&gt;&#xa;&#xa;" style="rounded=0;whiteSpace=wrap;html=1;" vertex="1" parent="1">
          <mxGeometry x="425" y="320" width="120" height="60" as="geometry" />
        </mxCell>
        <mxCell id="6VXw-UV9Kz2M4rHiQ5SI-10" value="" style="endArrow=classic;html=1;rounded=0;entryX=1;entryY=0.5;entryDx=0;entryDy=0;exitX=0;exitY=0.5;exitDx=0;exitDy=0;" edge="1" parent="1" source="6VXw-UV9Kz2M4rHiQ5SI-9" target="6VXw-UV9Kz2M4rHiQ5SI-12">
          <mxGeometry width="50" height="50" relative="1" as="geometry">
            <mxPoint x="420" y="350" as="sourcePoint" />
            <mxPoint x="360" y="360" as="targetPoint" />
          </mxGeometry>
        </mxCell>
        <mxCell id="6VXw-UV9Kz2M4rHiQ5SI-35" style="edgeStyle=orthogonalEdgeStyle;rounded=0;orthogonalLoop=1;jettySize=auto;html=1;exitX=0;exitY=0.5;exitDx=0;exitDy=0;" edge="1" parent="1" source="6VXw-UV9Kz2M4rHiQ5SI-12" target="6VXw-UV9Kz2M4rHiQ5SI-36">
          <mxGeometry relative="1" as="geometry">
            <mxPoint x="150" y="400" as="targetPoint" />
          </mxGeometry>
        </mxCell>
        <mxCell id="6VXw-UV9Kz2M4rHiQ5SI-37" style="edgeStyle=orthogonalEdgeStyle;rounded=0;orthogonalLoop=1;jettySize=auto;html=1;exitX=0;exitY=0.5;exitDx=0;exitDy=0;" edge="1" parent="1" source="6VXw-UV9Kz2M4rHiQ5SI-12" target="6VXw-UV9Kz2M4rHiQ5SI-38">
          <mxGeometry relative="1" as="geometry">
            <mxPoint x="140" y="430" as="targetPoint" />
          </mxGeometry>
        </mxCell>
        <mxCell id="6VXw-UV9Kz2M4rHiQ5SI-39" style="edgeStyle=orthogonalEdgeStyle;rounded=0;orthogonalLoop=1;jettySize=auto;html=1;exitX=0;exitY=0.5;exitDx=0;exitDy=0;" edge="1" parent="1" source="6VXw-UV9Kz2M4rHiQ5SI-12" target="6VXw-UV9Kz2M4rHiQ5SI-40">
          <mxGeometry relative="1" as="geometry">
            <mxPoint x="250" y="490" as="targetPoint" />
          </mxGeometry>
        </mxCell>
        <mxCell id="6VXw-UV9Kz2M4rHiQ5SI-41" style="edgeStyle=orthogonalEdgeStyle;rounded=0;orthogonalLoop=1;jettySize=auto;html=1;" edge="1" parent="1" source="6VXw-UV9Kz2M4rHiQ5SI-12" target="6VXw-UV9Kz2M4rHiQ5SI-42">
          <mxGeometry relative="1" as="geometry">
            <mxPoint x="350" y="480" as="targetPoint" />
          </mxGeometry>
        </mxCell>
        <mxCell id="6VXw-UV9Kz2M4rHiQ5SI-43" style="edgeStyle=orthogonalEdgeStyle;rounded=0;orthogonalLoop=1;jettySize=auto;html=1;exitX=1;exitY=0.5;exitDx=0;exitDy=0;" edge="1" parent="1" source="6VXw-UV9Kz2M4rHiQ5SI-12" target="6VXw-UV9Kz2M4rHiQ5SI-44">
          <mxGeometry relative="1" as="geometry">
            <mxPoint x="380" y="300" as="targetPoint" />
          </mxGeometry>
        </mxCell>
        <mxCell id="6VXw-UV9Kz2M4rHiQ5SI-12" value="&#xa;&lt;pre&gt;&lt;code class=&quot;!whitespace-pre hljs language-sql&quot;&gt;Appointments&lt;/code&gt;&lt;/pre&gt;&#xa;&#xa;" style="rounded=0;whiteSpace=wrap;html=1;" vertex="1" parent="1">
          <mxGeometry x="240" y="330" width="120" height="60" as="geometry" />
        </mxCell>
        <mxCell id="6VXw-UV9Kz2M4rHiQ5SI-18" value="ID" style="ellipse;whiteSpace=wrap;html=1;" vertex="1" parent="1">
          <mxGeometry x="240" y="70" width="70" height="50" as="geometry" />
        </mxCell>
        <mxCell id="6VXw-UV9Kz2M4rHiQ5SI-20" value="Name" style="ellipse;whiteSpace=wrap;html=1;" vertex="1" parent="1">
          <mxGeometry x="90" y="60" width="80" height="50" as="geometry" />
        </mxCell>
        <mxCell id="6VXw-UV9Kz2M4rHiQ5SI-22" value="Contact" style="ellipse;whiteSpace=wrap;html=1;" vertex="1" parent="1">
          <mxGeometry x="110" y="250" width="90" height="50" as="geometry" />
        </mxCell>
        <mxCell id="6VXw-UV9Kz2M4rHiQ5SI-24" value="ID" style="ellipse;whiteSpace=wrap;html=1;" vertex="1" parent="1">
          <mxGeometry x="430" y="20" width="70" height="50" as="geometry" />
        </mxCell>
        <mxCell id="6VXw-UV9Kz2M4rHiQ5SI-26" value="Name" style="ellipse;whiteSpace=wrap;html=1;" vertex="1" parent="1">
          <mxGeometry x="540" y="20" width="70" height="50" as="geometry" />
        </mxCell>
        <mxCell id="6VXw-UV9Kz2M4rHiQ5SI-28" value="&#xa;&lt;pre&gt;&lt;code class=&quot;!whitespace-pre hljs language-sql&quot;&gt;Speciality&lt;/code&gt;&lt;/pre&gt;&#xa;&#xa;" style="ellipse;whiteSpace=wrap;html=1;" vertex="1" parent="1">
          <mxGeometry x="340" y="60" width="90" height="80" as="geometry" />
        </mxCell>
        <mxCell id="6VXw-UV9Kz2M4rHiQ5SI-30" value="ID" style="ellipse;whiteSpace=wrap;html=1;" vertex="1" parent="1">
          <mxGeometry x="640" y="70" width="50" height="40" as="geometry" />
        </mxCell>
        <mxCell id="6VXw-UV9Kz2M4rHiQ5SI-32" value="Name" style="ellipse;whiteSpace=wrap;html=1;" vertex="1" parent="1">
          <mxGeometry x="740" y="60" width="60" height="30" as="geometry" />
        </mxCell>
        <mxCell id="6VXw-UV9Kz2M4rHiQ5SI-34" value="&#xa;&lt;pre&gt;&lt;code class=&quot;!whitespace-pre hljs language-sql&quot;&gt;Location&lt;/code&gt;&lt;/pre&gt;&#xa;&#xa;" style="ellipse;whiteSpace=wrap;html=1;" vertex="1" parent="1">
          <mxGeometry x="750" y="260" width="70" height="50" as="geometry" />
        </mxCell>
        <mxCell id="6VXw-UV9Kz2M4rHiQ5SI-36" value="ID" style="ellipse;whiteSpace=wrap;html=1;" vertex="1" parent="1">
          <mxGeometry x="60" y="350" width="40" height="30" as="geometry" />
        </mxCell>
        <mxCell id="6VXw-UV9Kz2M4rHiQ5SI-38" value="PatientID" style="ellipse;whiteSpace=wrap;html=1;" vertex="1" parent="1">
          <mxGeometry x="95" y="440" width="70" height="50" as="geometry" />
        </mxCell>
        <mxCell id="6VXw-UV9Kz2M4rHiQ5SI-40" value="DoctorID" style="ellipse;whiteSpace=wrap;html=1;" vertex="1" parent="1">
          <mxGeometry x="190" y="450" width="100" height="60" as="geometry" />
        </mxCell>
        <mxCell id="6VXw-UV9Kz2M4rHiQ5SI-42" value="ClinicID" style="ellipse;whiteSpace=wrap;html=1;" vertex="1" parent="1">
          <mxGeometry x="350" y="480" width="110" height="60" as="geometry" />
        </mxCell>
        <mxCell id="6VXw-UV9Kz2M4rHiQ5SI-44" value="Time" style="ellipse;whiteSpace=wrap;html=1;" vertex="1" parent="1">
          <mxGeometry x="330" y="230" width="100" height="60" as="geometry" />
        </mxCell>
      </root>
    </mxGraphModel>
  </diagram>
</mxfile>
